<?xml version="1.0" encoding="UTF-8" standalone="no"?>
<!-- Created with Inkscape (http://www.inkscape.org/) -->

<svg
   width="793.75mm"
   height="793.75mm"
   viewBox="0 0 793.75 793.75"
   version="1.1"
   id="svg1"
   xmlns:xlink="http://www.w3.org/1999/xlink"
   xmlns="http://www.w3.org/2000/svg"
   xmlns:svg="http://www.w3.org/2000/svg">
  <defs
     id="defs1">
    <linearGradient
       id="linearGradient8">
      <stop
         style="stop-color:#0000ff;stop-opacity:1"
         offset="0"
         id="stop8" />
      <stop
         style="stop-color:#000080;stop-opacity:1"
         offset="1"
         id="stop9" />
    </linearGradient>
    <linearGradient
       xlink:href="#linearGradient8"
       id="linearGradient9"
       x1="-365.90115"
       y1="-347.60611"
       x2="77.753998"
       y2="-795.83502"
       gradientUnits="userSpaceOnUse" />
  </defs>
  <g
     id="layer1"
     transform="translate(291.875,248.375)">
    <g
       id="g9"
       transform="translate(226.20475,736.2287)">
      <circle
         style="fill:url(#linearGradient9);fill-opacity:1;stroke:none;stroke-width:1.05833"
         id="path8"
         cx="-121.20475"
         cy="-587.7287"
         r="396.875" />
      <path
         id="rect7"
         style="fill:#ffffff;stroke:none;stroke-width:1.05833"
         d="m -365.83839,-772.85693 v 9.25628 c 7.93406,2.20391 13.44376,5.17944 16.52923,8.92608 3.08546,3.52624 4.62814,8.70545 4.62814,15.53755 v 302.81666 c 0,6.8321 -1.65301,12.12164 -4.95887,15.86828 -3.08547,3.74664 -8.48483,6.61131 -16.1985,8.59482 v 9.2568 h 122.97803 v -8.92607 c -7.93406,-2.42429 -13.44376,-5.39931 -16.52923,-8.92555 -3.08546,-3.74664 -4.62814,-9.03618 -4.62814,-15.86828 V -645.9117 l 134.87859,231.74037 142.813528,-231.74037 v 209.59134 c 0,6.8321 -1.653,12.12164 -4.9589016,15.86828 -3.0855,3.74664 -8.48529876,6.61131 -16.198999,8.59482 v 9.2568 H 123.42889 v -8.92607 c -7.9341,-2.2039 -13.4438,-5.17891 -16.5292,-8.92555 -3.0855,-3.74664 -4.6287,-9.03618 -4.6287,-15.86828 v -302.81666 c 0,-6.8321 1.5432,-12.01131 4.6287,-15.53755 3.0854,-3.74664 8.5951,-6.72217 16.5292,-8.92608 v -9.25628 H -28.971092 v 9.25628 c 10.79913,2.4243 16.19848,8.15468 16.19848,17.19069 0,7.27288 -5.28953,19.6148 -15.86827,37.02564 l -92.894588,153.39167 -92.23364,-155.70574 c -7.49328,-13.00303 -11.23963,-24.02295 -11.23963,-33.05896 0,-9.2564 5.17921,-15.53744 15.53755,-18.8433 v -9.25628 z" />
    </g>
  </g>
</svg>
